<?xml version="1.0" encoding="UTF-8" standalone="no"?>
<!DOCTYPE svg PUBLIC "-//W3C//DTD SVG 1.1//EN" "http://www.w3.org/Graphics/SVG/1.1/DTD/svg11.dtd">
<svg version="1.1" xmlns="http://www.w3.org/2000/svg" xmlns:xlink="http://www.w3.org/1999/xlink" preserveAspectRatio="xMidYMid meet" viewBox="0 0 860 860" width="860" height="860"><defs><path d="M163.55 416.25C157.97 416.25 153.44 420.77 153.44 426.35C153.44 457.71 153.44 708.54 153.44 739.9C153.44 745.48 157.97 750 163.55 750C216.84 750 643.16 750 696.45 750C702.04 750 706.56 745.48 706.56 739.9C706.56 708.54 706.56 457.71 706.56 426.35C706.56 420.77 702.03 416.25 696.45 416.25C589.87 416.25 216.84 416.25 163.55 416.25Z" id="f5SLSVYZJU"></path><path d="M163.55 416.25C157.97 416.25 153.44 420.77 153.44 426.35C153.44 429.05 153.44 442.52 153.44 466.78L706.56 466.78C706.56 442.52 706.56 429.05 706.56 426.35C706.56 420.77 702.03 416.25 696.45 416.25C589.87 416.25 216.84 416.25 163.55 416.25Z" id="corZspkv8"></path><path d="M378.38 416.25C372.79 416.25 368.27 420.77 368.27 426.35C368.27 457.71 368.27 708.54 368.27 739.9C368.27 745.48 372.79 750 378.38 750C388.7 750 471.3 750 481.63 750C487.21 750 491.73 745.48 491.73 739.9C491.73 708.54 491.73 457.71 491.73 426.35C491.73 420.77 487.21 416.25 481.63 416.25C460.98 416.25 388.7 416.25 378.38 416.25Z" id="a1ljUXnMkw"></path><path d="M378.38 416.25C372.79 416.25 368.27 420.77 368.27 426.35C368.27 429.03 368.27 442.44 368.27 466.56L491.73 466.56C491.73 442.44 491.73 429.03 491.73 426.35C491.73 420.77 487.21 416.25 481.63 416.25C460.98 416.25 388.7 416.25 378.38 416.25Z" id="a42bu3PHZ"></path><path d="M634.95 162.1C628.97 156.07 620.93 153.02 611.77 153.21C581.43 153.92 531.99 192 464.83 266.39C463.15 268.25 462.22 270.66 462.22 273.16C462.22 278.51 462.22 321.27 462.22 326.62C462.22 332.2 466.74 336.72 472.32 336.72C487.87 336.72 612.22 336.72 627.77 336.72C662.4 336.72 676.7 319.87 682.59 305.74C690.45 286.89 688.38 259.84 676.77 229.58C666.86 203.75 651.22 178.53 634.95 162.1Z" id="a6xSjmaGD"></path><path d="M681.23 244.26C665.97 221.19 633 229.83 608.03 241.13C535.48 273.97 505.52 319.21 504.28 321.11C502.26 324.22 502.11 328.18 503.87 331.44C505.64 334.7 509.05 336.72 512.75 336.72C524.26 336.72 616.27 336.72 627.77 336.72C649.81 336.72 666.15 329.96 676.35 316.62C688.46 300.77 690.6 276.76 682.55 247.18C682.27 246.15 681.82 245.16 681.23 244.26Z" id="a2G6P26Grq"></path><path d="M248.23 153.22C239.05 153.02 231.03 156.07 225.05 162.1C208.78 178.53 193.14 203.75 183.23 229.58C171.62 259.84 169.55 286.89 177.41 305.74C183.3 319.87 197.6 336.72 232.23 336.72C247.78 336.72 372.13 336.72 387.67 336.72C393.26 336.72 397.78 332.2 397.78 326.62C397.78 321.27 397.78 278.51 397.78 273.17C397.78 270.66 396.85 268.25 395.17 266.39C328.01 192 278.57 153.92 248.23 153.22Z" id="b6VtSn4rv"></path><path d="M251.97 241.13C227 229.83 194.03 221.2 178.77 244.26C178.18 245.16 177.73 246.15 177.45 247.18C169.4 276.76 171.54 300.77 183.66 316.62C193.85 329.96 210.19 336.72 232.23 336.72C243.73 336.72 335.75 336.72 347.25 336.72C350.95 336.72 354.36 334.7 356.13 331.44C357.9 328.18 357.74 324.22 355.72 321.11C354.48 319.21 324.52 273.97 251.97 241.13Z" id="bX3DGFTLq"></path><path d="M387.67 253.07C382.09 253.07 377.57 257.6 377.57 263.18C377.57 269.52 377.57 320.27 377.57 326.62C377.57 332.2 382.09 336.72 387.67 336.72C396.14 336.72 463.86 336.72 472.33 336.72C477.91 336.72 482.43 332.2 482.43 326.62C482.43 320.27 482.43 269.52 482.43 263.18C482.43 257.6 477.91 253.07 472.33 253.07C455.4 253.07 396.14 253.07 387.67 253.07Z" id="iuIsiI6YY"></path><path d="M120.11 316.53C114.52 316.53 110 321.06 110 326.64C110 336.61 110 416.38 110 426.35C110 431.94 114.52 436.46 120.11 436.46C182.08 436.46 677.92 436.46 739.9 436.46C745.48 436.46 750 431.93 750 426.35C750 416.38 750 336.61 750 326.64C750 321.06 745.48 316.53 739.9 316.53C615.94 316.53 182.08 316.53 120.11 316.53Z" id="c6A7KRO2t"></path><path d="M507.62 316.53C507.62 316.53 507.62 316.53 507.62 316.53C507.62 388.49 507.62 428.46 507.62 436.46C507.62 436.46 507.62 436.46 507.62 436.46C414.48 436.46 362.73 436.46 352.38 436.46C352.38 436.46 352.38 436.46 352.38 436.46C352.38 364.5 352.38 324.52 352.38 316.53C352.38 316.53 352.38 316.53 352.38 316.53C445.52 316.53 497.27 316.53 507.62 316.53Z" id="b8BBPlAyfe"></path></defs><g><g><g><use xlink:href="#f5SLSVYZJU" opacity="1" fill="#f7434c" fill-opacity="1"></use><g><use xlink:href="#f5SLSVYZJU" opacity="1" fill-opacity="0" stroke="#000000" stroke-width="1" stroke-opacity="0"></use></g></g><g><use xlink:href="#corZspkv8" opacity="1" fill="#db2e37" fill-opacity="1"></use><g><use xlink:href="#corZspkv8" opacity="1" fill-opacity="0" stroke="#000000" stroke-width="1" stroke-opacity="0"></use></g></g><g><use xlink:href="#a1ljUXnMkw" opacity="1" fill="#ffdb57" fill-opacity="1"></use><g><use xlink:href="#a1ljUXnMkw" opacity="1" fill-opacity="0" stroke="#000000" stroke-width="1" stroke-opacity="0"></use></g></g><g><use xlink:href="#a42bu3PHZ" opacity="1" fill="#f5ba3d" fill-opacity="1"></use><g><use xlink:href="#a42bu3PHZ" opacity="1" fill-opacity="0" stroke="#000000" stroke-width="1" stroke-opacity="0"></use></g></g><g><use xlink:href="#a6xSjmaGD" opacity="1" fill="#ffdb57" fill-opacity="1"></use><g><use xlink:href="#a6xSjmaGD" opacity="1" fill-opacity="0" stroke="#000000" stroke-width="1" stroke-opacity="0"></use></g></g><g><use xlink:href="#a2G6P26Grq" opacity="1" fill="#ef9325" fill-opacity="1"></use><g><use xlink:href="#a2G6P26Grq" opacity="1" fill-opacity="0" stroke="#000000" stroke-width="1" stroke-opacity="0"></use></g></g><g><use xlink:href="#b6VtSn4rv" opacity="1" fill="#ffdb57" fill-opacity="1"></use><g><use xlink:href="#b6VtSn4rv" opacity="1" fill-opacity="0" stroke="#000000" stroke-width="1" stroke-opacity="0"></use></g></g><g><use xlink:href="#bX3DGFTLq" opacity="1" fill="#ef9325" fill-opacity="1"></use><g><use xlink:href="#bX3DGFTLq" opacity="1" fill-opacity="0" stroke="#000000" stroke-width="1" stroke-opacity="0"></use></g></g><g><use xlink:href="#iuIsiI6YY" opacity="1" fill="#f5ba3d" fill-opacity="1"></use><g><use xlink:href="#iuIsiI6YY" opacity="1" fill-opacity="0" stroke="#000000" stroke-width="1" stroke-opacity="0"></use></g></g><g><use xlink:href="#c6A7KRO2t" opacity="1" fill="#f7434c" fill-opacity="1"></use><g><use xlink:href="#c6A7KRO2t" opacity="1" fill-opacity="0" stroke="#000000" stroke-width="1" stroke-opacity="0"></use></g></g><g><use xlink:href="#b8BBPlAyfe" opacity="1" fill="#ffdb57" fill-opacity="1"></use><g><use xlink:href="#b8BBPlAyfe" opacity="1" fill-opacity="0" stroke="#000000" stroke-width="1" stroke-opacity="0"></use></g></g></g></g></svg>