<?xml version="1.0" encoding="UTF-8" standalone="no"?>
<!DOCTYPE svg PUBLIC "-//W3C//DTD SVG 1.1//EN" "http://www.w3.org/Graphics/SVG/1.1/DTD/svg11.dtd">
<svg version="1.1" xmlns="http://www.w3.org/2000/svg" xmlns:xlink="http://www.w3.org/1999/xlink" preserveAspectRatio="xMidYMid meet" viewBox="0 0 860 860" width="860" height="860"><defs><path d="M163.47 416.25C157.89 416.25 153.37 420.77 153.37 426.35C153.37 457.71 153.37 708.54 153.37 739.9C153.37 745.48 157.89 750 163.47 750C216.77 750 643.09 750 696.38 750C701.96 750 706.49 745.48 706.49 739.9C706.49 708.54 706.49 457.71 706.49 426.36C706.48 420.77 701.96 416.25 696.38 416.25C589.8 416.25 216.77 416.25 163.47 416.25Z" id="e2uiCAvgzn"></path><path d="M135.76 441.12C130.6 443.24 150.13 442.38 152.25 447.54C153.27 450.04 153.27 464.75 152.25 491.69C259.51 444.47 312.91 420.28 312.44 419.15C311.03 415.71 284.74 414.07 233.57 414.25C201.22 418.65 168.62 427.61 135.76 441.12Z" id="a170EcRzO9"></path><path d="M377.18 416.25C371.6 416.25 367.08 420.77 367.08 426.35C367.08 457.71 367.08 708.54 367.08 739.9C367.08 745.48 371.6 750 377.18 750C387.51 750 470.11 750 480.43 750C486.01 750 490.53 745.48 490.53 739.9C490.53 708.54 490.53 457.71 490.53 426.36C490.53 420.77 486.01 416.25 480.43 416.25C459.78 416.25 387.51 416.25 377.18 416.25Z" id="a71DUn2fH3"></path><path d="M475.09 28.85C467.27 25.55 458.67 25.79 450.28 29.45C422.48 41.64 391.24 95.66 357.41 190.01C356.57 192.36 356.63 194.95 357.58 197.26C359.61 202.21 375.87 241.75 377.91 246.7C380.03 251.86 385.93 254.32 391.09 252.2C405.47 246.29 520.48 199 534.86 193.09C566.89 179.91 573.7 158.89 573.77 143.58C573.88 123.16 561.68 98.93 539.43 75.36C520.44 55.24 496.39 37.86 475.09 28.85Z" id="f1av3j8Wc4"></path><path d="M549.14 85.18C526.26 69.64 499.04 90.17 480.25 110.12C425.64 168.08 415.13 221.31 414.71 223.55C414.03 227.19 415.39 230.91 418.27 233.25C421.14 235.59 425.06 236.17 428.49 234.76C439.12 230.39 524.22 195.4 534.86 191.02C555.24 182.64 567.79 170.17 572.14 153.95C577.31 134.69 570.17 111.67 551.47 87.38C550.82 86.52 550.03 85.78 549.14 85.18Z" id="b78BGmuQrN"></path><path d="M114.91 163.57C106.35 166.88 100.09 172.76 96.86 180.6C88.05 201.98 83.18 231.26 83.84 258.91C84.62 291.32 92.99 317.12 107.42 331.57C118.25 342.4 137.87 352.55 169.91 339.37C184.28 333.46 299.29 286.17 313.67 280.26C318.83 278.14 321.29 272.23 319.17 267.07C317.14 262.13 300.88 222.58 298.84 217.64C297.89 215.32 296.12 213.44 293.86 212.36C203.45 169.1 143.24 152.69 114.91 163.57Z" id="k2OY4yoVk3"></path><path d="M150.95 245.53C123.55 244.57 89.78 249.13 84.44 276.26C84.23 277.32 84.19 278.4 84.33 279.47C88.12 309.88 99.24 331.27 116.47 341.32C130.97 349.78 148.66 349.83 169.04 341.44C179.68 337.07 264.78 302.08 275.42 297.7C278.84 296.29 281.22 293.12 281.62 289.44C282.02 285.76 280.37 282.15 277.32 280.05C275.45 278.75 230.53 248.31 150.95 245.53Z" id="c7iJ7LeT4n"></path><path d="M280.99 204.96C275.83 207.09 273.37 212.99 275.49 218.15C277.9 224.02 297.2 270.96 299.62 276.83C301.74 281.99 307.64 284.45 312.81 282.33C320.64 279.11 383.27 253.35 391.1 250.13C396.26 248.01 398.72 242.11 396.6 236.95C394.19 231.08 374.89 184.14 372.47 178.27C370.35 173.11 364.45 170.65 359.29 172.77C343.63 179.21 288.82 201.74 280.99 204.96Z" id="cjWUxYbbw"></path><path d="M57.66 365.41C52.5 367.54 50.04 373.44 52.16 378.6C55.95 387.83 86.29 461.6 90.08 470.83C92.21 475.99 98.11 478.45 103.27 476.33C160.59 452.76 619.17 264.19 676.49 240.62C681.65 238.5 684.12 232.59 681.99 227.43C678.2 218.21 647.86 144.43 644.07 135.21C641.95 130.05 636.05 127.58 630.88 129.71C516.24 176.85 114.99 341.84 57.66 365.41Z" id="a1mvzg4oGH"></path><path d="M416.06 218.04C416.06 218.04 416.06 218.04 416.06 218.04C443.43 284.59 458.63 321.56 461.67 328.95C461.67 328.95 461.67 328.95 461.67 328.95C375.52 364.38 327.66 384.06 318.09 387.99C318.09 387.99 318.09 387.99 318.09 387.99C290.73 321.44 275.52 284.47 272.48 277.08C272.48 277.08 272.48 277.08 272.48 277.08C358.63 241.65 406.49 221.97 416.06 218.04Z" id="alWkQ7xed"></path><path d="M534.95 350.24C534.78 350.41 533.94 351.26 532.41 352.78C530.89 351.26 530.04 350.41 529.87 350.24C526.46 346.95 521.05 347 517.7 350.35C514.36 353.69 514.31 359.11 517.6 362.51C517.77 362.68 518.62 363.53 520.14 365.05C518.62 366.58 517.77 367.43 517.6 367.6C515.34 369.77 514.44 373 515.23 376.04C516.03 379.07 518.4 381.44 521.43 382.23C524.46 383.03 527.69 382.12 529.87 379.87C530.04 379.7 530.89 378.85 532.41 377.32C533.94 378.85 534.78 379.7 534.95 379.87C538.36 383.16 543.77 383.11 547.12 379.76C550.47 376.41 550.51 371 547.22 367.6C547.06 367.43 546.21 366.58 544.68 365.05C546.21 363.53 547.06 362.68 547.22 362.51C550.61 359.12 550.61 353.63 547.22 350.24C543.84 346.85 538.34 346.85 534.95 350.24Z" id="a19LxcStcm"></path><path d="M667.95 360.13C667.78 360.3 666.93 361.15 665.4 362.68C663.88 361.15 663.03 360.3 662.86 360.13C659.45 356.84 654.04 356.89 650.69 360.24C647.35 363.59 647.3 369 650.59 372.4C650.76 372.57 651.61 373.42 653.13 374.95C651.61 376.47 650.76 377.32 650.59 377.49C648.33 379.67 647.43 382.89 648.22 385.93C649.02 388.96 651.39 391.33 654.42 392.13C657.45 392.92 660.68 392.01 662.86 389.76C663.03 389.59 663.88 388.74 665.4 387.22C666.93 388.74 667.78 389.59 667.95 389.76C671.35 393.05 676.76 393 680.11 389.65C683.46 386.31 683.5 380.89 680.22 377.49C680.05 377.32 679.2 376.47 677.67 374.95C679.2 373.42 680.05 372.57 680.22 372.4C683.6 369.01 683.6 363.52 680.22 360.13C676.83 356.74 671.33 356.74 667.95 360.13Z" id="e3TTX47BhN"></path><path d="M732.97 279.09C734.49 277.57 735.34 276.72 735.51 276.55C738.8 273.14 738.75 267.73 735.4 264.38C732.06 261.04 726.64 260.99 723.24 264.28C723.07 264.45 722.22 265.3 720.7 266.82C719.17 265.3 718.32 264.45 718.15 264.28C714.75 260.99 709.34 261.04 705.99 264.38C702.64 267.73 702.6 273.14 705.88 276.55C706.05 276.72 706.9 277.57 708.43 279.09C706.9 280.62 706.05 281.47 705.88 281.63C703.63 283.81 702.72 287.04 703.52 290.07C704.31 293.11 706.68 295.48 709.72 296.27C712.75 297.07 715.98 296.16 718.15 293.91C718.32 293.74 719.17 292.89 720.7 291.36C722.22 292.89 723.07 293.74 723.24 293.91C726.64 297.19 732.06 297.15 735.4 293.8C738.75 290.45 738.8 285.04 735.51 281.63C735.17 281.3 734.32 280.45 732.97 279.09Z" id="a6bYyzm8Kd"></path><path d="M624.1 296.15C623.93 296.31 623.08 297.16 621.56 298.69C620.03 297.16 619.18 296.31 619.02 296.15C615.61 292.86 610.2 292.9 606.85 296.25C603.5 299.6 603.46 305.01 606.74 308.42C606.91 308.59 607.76 309.43 609.29 310.96C607.76 312.48 606.91 313.33 606.74 313.5C604.49 315.68 603.58 318.91 604.38 321.94C605.17 324.97 607.54 327.34 610.58 328.14C613.61 328.93 616.84 328.03 619.02 325.77C619.18 325.6 620.03 324.75 621.56 323.23C623.08 324.75 623.93 325.6 624.1 325.77C627.51 329.06 632.92 329.01 636.27 325.67C639.61 322.32 639.66 316.91 636.37 313.5C636.2 313.33 635.35 312.48 633.83 310.96C635.35 309.43 636.2 308.59 636.37 308.42C639.76 305.03 639.76 299.53 636.37 296.15C632.98 292.76 627.49 292.76 624.1 296.15Z" id="aApgeQ7z0"></path><path d="M702.22 207.74C703.74 209.26 704.59 210.11 704.76 210.28C708.17 213.57 713.58 213.52 716.93 210.18C720.27 206.83 720.32 201.42 717.03 198.01C716.86 197.84 716.01 196.99 714.49 195.47C716.01 193.94 716.86 193.09 717.03 192.92C720.32 189.52 720.27 184.11 716.93 180.76C713.58 177.41 708.17 177.37 704.76 180.65C704.59 180.82 703.74 181.67 702.22 183.2C700.69 181.67 699.84 180.82 699.67 180.65C696.27 177.37 690.86 177.41 687.51 180.76C684.16 184.11 684.12 189.52 687.4 192.92C687.57 193.09 688.42 193.94 689.95 195.47C688.42 196.99 687.57 197.84 687.4 198.01C685.15 200.19 684.24 203.42 685.04 206.45C685.83 209.48 688.2 211.85 691.24 212.65C694.27 213.44 697.5 212.54 699.67 210.28C700.01 209.94 700.86 209.09 702.22 207.74Z" id="ey3olKnr0"></path></defs><g><g><g><use xlink:href="#e2uiCAvgzn" opacity="1" fill="#f7434c" fill-opacity="1"></use><g><use xlink:href="#e2uiCAvgzn" opacity="1" fill-opacity="0" stroke="#000000" stroke-width="1" stroke-opacity="0"></use></g></g><g><use xlink:href="#a170EcRzO9" opacity="1" fill="#db2e37" fill-opacity="1"></use><g><use xlink:href="#a170EcRzO9" opacity="1" fill-opacity="0" stroke="#000000" stroke-width="1" stroke-opacity="0"></use></g></g><g><use xlink:href="#a71DUn2fH3" opacity="1" fill="#ffdb57" fill-opacity="1"></use><g><use xlink:href="#a71DUn2fH3" opacity="1" fill-opacity="0" stroke="#000000" stroke-width="1" stroke-opacity="0"></use></g></g><g><use xlink:href="#f1av3j8Wc4" opacity="1" fill="#ffdb57" fill-opacity="1"></use><g><use xlink:href="#f1av3j8Wc4" opacity="1" fill-opacity="0" stroke="#000000" stroke-width="1" stroke-opacity="0"></use></g></g><g><use xlink:href="#b78BGmuQrN" opacity="1" fill="#ef9325" fill-opacity="1"></use><g><use xlink:href="#b78BGmuQrN" opacity="1" fill-opacity="0" stroke="#000000" stroke-width="1" stroke-opacity="0"></use></g></g><g><use xlink:href="#k2OY4yoVk3" opacity="1" fill="#ffdb57" fill-opacity="1"></use><g><use xlink:href="#k2OY4yoVk3" opacity="1" fill-opacity="0" stroke="#000000" stroke-width="1" stroke-opacity="0"></use></g></g><g><use xlink:href="#c7iJ7LeT4n" opacity="1" fill="#ef9325" fill-opacity="1"></use><g><use xlink:href="#c7iJ7LeT4n" opacity="1" fill-opacity="0" stroke="#000000" stroke-width="1" stroke-opacity="0"></use></g></g><g><use xlink:href="#cjWUxYbbw" opacity="1" fill="#f5ba3d" fill-opacity="1"></use><g><use xlink:href="#cjWUxYbbw" opacity="1" fill-opacity="0" stroke="#000000" stroke-width="1" stroke-opacity="0"></use></g></g><g><use xlink:href="#a1mvzg4oGH" opacity="1" fill="#f7434c" fill-opacity="1"></use><g><use xlink:href="#a1mvzg4oGH" opacity="1" fill-opacity="0" stroke="#000000" stroke-width="1" stroke-opacity="0"></use></g></g><g><use xlink:href="#alWkQ7xed" opacity="1" fill="#ffdb57" fill-opacity="1"></use><g><use xlink:href="#alWkQ7xed" opacity="1" fill-opacity="0" stroke="#000000" stroke-width="1" stroke-opacity="0"></use></g></g><g><use xlink:href="#a19LxcStcm" opacity="1" fill="#955ba5" fill-opacity="1"></use><g><use xlink:href="#a19LxcStcm" opacity="1" fill-opacity="0" stroke="#000000" stroke-width="1" stroke-opacity="0"></use></g></g><g><use xlink:href="#e3TTX47BhN" opacity="1" fill="#955ba5" fill-opacity="1"></use><g><use xlink:href="#e3TTX47BhN" opacity="1" fill-opacity="0" stroke="#000000" stroke-width="1" stroke-opacity="0"></use></g></g><g><use xlink:href="#a6bYyzm8Kd" opacity="1" fill="#ffdb57" fill-opacity="1"></use><g><use xlink:href="#a6bYyzm8Kd" opacity="1" fill-opacity="0" stroke="#000000" stroke-width="1" stroke-opacity="0"></use></g></g><g><use xlink:href="#aApgeQ7z0" opacity="1" fill="#ffdb57" fill-opacity="1"></use><g><use xlink:href="#aApgeQ7z0" opacity="1" fill-opacity="0" stroke="#000000" stroke-width="1" stroke-opacity="0"></use></g></g><g><use xlink:href="#ey3olKnr0" opacity="1" fill="#955ba5" fill-opacity="1"></use><g><use xlink:href="#ey3olKnr0" opacity="1" fill-opacity="0" stroke="#000000" stroke-width="1" stroke-opacity="0"></use></g></g></g></g></svg>